<svg width="90" height="90" viewBox="0 0 90 90" xmlns="http://www.w3.org/2000/svg">
    <g id="focusBox">
        <mask id="focusBoxMask">
            <rect x="0" y="0" width="90" height="90" fill="#ffffff" />
            <rect x="20" y="20" width="50" height="50" fill="#000000" rx="2" />
        </mask>
        <rect id="overlay" x="0" y="0" width="90" height="90" fill="#000000" opacity="0.6" mask="url(#focusBoxMask)" />
    </g>
    <path d="M20 30L20 24C20 20 20 20 24 20L30 20" stroke-width="1" stroke="#ffffff" fill="transparent" id="topLeftBorder" />
    <path d="M20 30L20 24C20 20 20 20 24 20L30 20" stroke-width="1" stroke="#ffffff" fill="transparent" id="topRightBorder" transform="rotate(90 20 20) translate(0 -50)" />
    <path d="M20 30L20 24C20 20 20 20 24 20L30 20" stroke-width="1" stroke="#ffffff" fill="transparent" id="bottomLeftBorder" transform="rotate(270 20 20) translate(-50 0)" />
    <path d="M20 30L20 24C20 20 20 20 24 20L30 20" stroke-width="1" stroke="#ffffff" fill="transparent" id="bottomRightBorder" transform="rotate(180 20 20) translate(-50 -50)" />
</svg>