<svg xmlns="http://www.w3.org/2000/svg" width="90" height="90" viewBox="0 0 90 90"><g id="focusBox"><mask id="focusBoxMask"><rect width="90" height="90" x="0" y="0" fill="#fff"/><rect width="50" height="50" x="20" y="20" fill="#000" rx="2"/></mask><rect id="overlay" width="90" height="90" x="0" y="0" fill="#000" mask="url(#focusBoxMask)" opacity=".6"/></g><path id="topLeftBorder" fill="transparent" stroke="#fff" stroke-width="1" d="M20 30L20 24C20 20 20 20 24 20L30 20"/><path id="topRightBorder" fill="transparent" stroke="#fff" stroke-width="1" d="M20 30L20 24C20 20 20 20 24 20L30 20" transform="rotate(90 20 20) translate(0 -50)"/><path id="bottomLeftBorder" fill="transparent" stroke="#fff" stroke-width="1" d="M20 30L20 24C20 20 20 20 24 20L30 20" transform="rotate(270 20 20) translate(-50 0)"/><path id="bottomRightBorder" fill="transparent" stroke="#fff" stroke-width="1" d="M20 30L20 24C20 20 20 20 24 20L30 20" transform="rotate(180 20 20) translate(-50 -50)"/></svg>